/* XPM */
static char *result[] = {
/* columns rows colors chars-per-pixel */
"32 32 95 2 ",
"   c #352E18",
".  c #420D07",
"X  c #49130B",
"o  c #49130C",
"O  c #42190C",
"+  c #4F1810",
"@  c #501810",
"#  c #422311",
"$  c #422411",
"%  c #5D2319",
"&  c #5E2419",
"*  c #5D261D",
"=  c #413017",
"-  c #423A1B",
";  c #413B1C",
":  c #64291D",
">  c #662D23",
",  c #662E24",
"<  c #6B2F22",
"1  c #6C2F22",
"2  c #69352C",
"3  c #793A2B",
"4  c #6B3B34",
"5  c #783E32",
"6  c #294E28",
"7  c #414621",
"8  c #504625",
"9  c #425126",
"0  c #415D2B",
"q  c #56572F",
"w  c #6B462C",
"e  c #6F4230",
"r  c #416830",
"t  c #4D6C3A",
"y  c #417335",
"u  c #417F3A",
"i  c #714A45",
"p  c #655C45",
"a  c #716150",
"s  c #7D645A",
"d  c #7D7B64",
"f  c #864534",
"g  c #8B4B3A",
"h  c #8D4D3C",
"j  c #94513D",
"k  c #8A4E40",
"l  c #935647",
"z  c #9B5642",
"x  c #9C5E4E",
"c  c #835A54",
"v  c #AE6F5D",
"b  c #B06850",
"n  c #B46D55",
"m  c #B8725B",
"M  c #896864",
"N  c #C07F6B",
"B  c #109049",
"V  c #288742",
"C  c #28AA51",
"Z  c #419645",
"A  c #598650",
"S  c #41A14A",
"D  c #40AD4F",
"F  c #40AD50",
"G  c #40B855",
"H  c #40C45A",
"J  c #B98B7E",
"K  c #C98873",
"L  c #D2907A",
"P  c #A08683",
"I  c #AC9593",
"U  c #B8A5A2",
"Y  c #D59782",
"T  c #D79E8B",
"R  c #DDAB9B",
"E  c #DDAC9B",
"W  c #C4B3B1",
"Q  c #E0B2A3",
"!  c #E3B9AC",
"~  c #E6C0B4",
"^  c #E8C7BC",
"/  c #E8C8BC",
"(  c #CFC2C1",
")  c #D0C3C1",
"_  c #EED5CC",
"`  c #F1DCD6",
"'  c #F3E3DD",
"]  c #F4E3DE",
"[  c #E7E1E0",
"{  c #E8E1E0",
"}  c #F6EAE6",
"|  c #F3F0EF",
" . c #F9F1EE",
".. c #FCF8F7",
"X. c white",
/* pixels */
"H H H H H H H H H H H H # . . . . . . $ H H H H H H H H H H H H ",
"H H H H H H H H D u u u s M M c 5 5 5 e u u u F H H H H H H H H ",
"H H H H H H H H u . . . [ X.X._ L L L N . . . u H H H H H H H H ",
"H H H H H 0 - - a ) ) ) X.X.X._ L L L K v J ) d - - 0 H H H H H ",
"H H H F Z p i i I X.X.X.X.X.X._ L L L L L ! X.P i i p Z F H H H ",
"H H H r . ) X.X.X.X.X.X.X.X.X._ L L L L L ! X.X.X.X.( . r H H H ",
"H S 9 d U { X.X.X.X.X.X.X.X.X._ L L L L L T ! ] X.X.| U d 9 F H ",
"H Z . P X.X.X.X.X.X.X.X.X...R T L L L L L L L _ X.X.X.X.P . Z H ",
"H Z . P X.X.X.X.X.X.X.X.X. .L L L L L L L L L / ' ' } X.P . Z H ",
"u A M W X.X.X.X.X.X.X.X.X. .L L L L L L L L L L L L E X.W M t u ",
". i X.X.X.X.X.X.X.X.X.X.~ Q L L L L L L L L L L L L Y ! ! ! 4 . ",
". i X.X.X.X.X.X.X.X.X.X.T L L L L L L L L L L L L L L L L L > . ",
". i X.X.X.X.X.X.X.X.X.R L L L L L L L L L L L L L L L L L L > . ",
". i X.X.X.X.X.X.X.X.X.R L L L N x K L L L L L L L L L L L L > . ",
". i X.X.X.X.X.X.X.` ! T L L L x . v L L L L L L L L L L L L > . ",
". i X.X.X.X.X.X.X.^ L L L L L x . v L L L L L L L L L L L L > . ",
". i X.X.X.X.X.' ' ! L L L L L L L > . L L L L L L L L L L L > . ",
". i X.X.X.X. .L L L L L L L L L L > . L L L L L L L L L L L > . ",
". 2 ! ! ! ! Q L L L L L L L L v 5 g f 5 l L L L L L L L L L > . ",
". , L L L L L L L L L L L L L x . j b . , L L L L L L L L L > . ",
". & b b b b n L L L L L L L L x . j b b j . k L L n b b b b % . ",
"9 8 f z b b n L L L L L L L L x . j b b j . k L L n b b z f q 9 ",
"H Z . 3 b b n L L L L L L L L x . & < < : . * v L n b b 3 . Z H ",
"H Z . 3 b b b m m m m m m m m g . . . . . . . h m b b b 3 . Z H ",
"H S ; w j j j b b b b b b b b b b b b b b b b b b z j j w ; S H ",
"H H H r . . @ b b b b b b b b b b b b b b b b b b + . . 6 B C H ",
"H H H S u $ o < f b b b b b b b b b b b b b b f < X = u V B C H ",
"H H H H H - . . 1 b b b b b b b b b b b b b b < . .   B C H H H ",
"H H H H H - . . . . . . . . . . . . . . . . . . . .   B C H H H ",
"H H H H H y 7 . . . . . . O 9 9 9 9 O . . . . . . 7 r H H H H H ",
"H H H H H H D . . . . . . $ H H H H # . . . . . . F H H H H H H ",
"H H H H H H G Z r . . . . $ H H H H # . . . . 0 Z H H H H H H H "
};
