/* XPM */
static char *result[] = {
/* columns rows colors chars-per-pixel */
"32 32 121 2 ",
"   c #420D07",
".  c #42190C",
"X  c #541D15",
"o  c #422311",
"O  c #412411",
"+  c #412F17",
"@  c #5D261D",
"#  c #423A1B",
"$  c #413B1C",
"%  c #5A2B26",
"&  c #662E23",
"*  c #662D24",
"=  c #6B2F2C",
"-  c #65322A",
";  c #6F352B",
":  c #653A35",
">  c #713F35",
",  c #783E32",
"<  c #713A39",
"1  c #713E3C",
"2  c #5C472C",
"3  c #5C482C",
"4  c #415126",
"5  c #415C2B",
"6  c #6E583A",
"7  c #4A6532",
"8  c #416830",
"9  c #4D6C3B",
"0  c #417335",
"q  c #417435",
"w  c #417F3A",
"e  c #53793F",
"r  c #714945",
"t  c #7D4A40",
"y  c #7D7B64",
"u  c #814639",
"i  c #8A4E40",
"p  c #92474A",
"a  c #88574B",
"s  c #89574C",
"d  c #935647",
"f  c #9C5F4F",
"g  c #945052",
"h  c #92635A",
"j  c #A26757",
"k  c #AE6F5D",
"l  c #886764",
"z  c #896864",
"x  c #BA6F65",
"c  c #AD7362",
"v  c #B77764",
"b  c #C07F6B",
"n  c #DE707D",
"m  c #109049",
"M  c #289347",
"N  c #289F4C",
"B  c #28AA51",
"V  c #409645",
"C  c #40AD4F",
"Z  c #40AD50",
"A  c #40B955",
"S  c #40C45A",
"D  c #C0806C",
"F  c #CC8074",
"G  c #C98873",
"H  c #C08B7D",
"J  c #CC8F7B",
"K  c #D5887B",
"L  c #D2907A",
"P  c #D5947E",
"I  c #A08683",
"U  c #B09089",
"Y  c #BF998F",
"T  c #AC9593",
"R  c #B29692",
"E  c #B8A4A2",
"W  c #C28A8F",
"Q  c #D79882",
"!  c #D89883",
"~  c #D79D8A",
"^  c #D89E8B",
"/  c #CD969B",
"(  c #CE969C",
")  c #DDA18B",
"_  c #D0A190",
"`  c #DAA593",
"'  c #DDAB9B",
"]  c #DDAC9B",
"[  c #E8B19C",
"{  c #E89DA6",
"}  c #D9A2A7",
"|  c #D9A1A8",
" . c #C4B3B1",
".. c #ECA0A9",
"X. c #EAA5AD",
"o. c #E3BAAC",
"O. c #EFAEB6",
"+. c #E6C0B4",
"@. c #E8C7BC",
"#. c #E8C8BC",
"$. c #FFD2BE",
"%. c #CFC2C1",
"&. c #D0C3C1",
"*. c #FCC4CD",
"=. c #EED5CD",
"-. c #F1CFD3",
";. c #FCCBD3",
":. c #FDCFD6",
">. c #E7D9DA",
",. c #E7DDDD",
"<. c #FCD2D9",
"1. c #FCD6DC",
"2. c #F3E3DD",
"3. c #FDDAE0",
"4. c #E7E1E0",
"5. c #FDE8EC",
"6. c #FEECEF",
"7. c #F3F0EF",
"8. c #F9F1EF",
"9. c #FCF8F7",
"0. c white",
/* pixels */
"S S S S S S S S S S S S S S S S S S S S S S S S S S S S S S S S ",
"S S S S S S S S S S S S 4             4 S S S S S S S S S S S S ",
"S S S S S S S S S 0 8 8 6 i i h I I I y 8 8 q S S S S S S S S S ",
"S S S S S S S S S o     f L L o.0.0.0.E     O S S S S S S S S S ",
"S S S S S C       D L L L L L L =.0.0.0.0.0.4.      Z S S S S S ",
"S S S S w 9 I I I J L L L L L L =.0.0.0.0.0.7.I I I 9 w S S S S ",
"S S S S # % 0.0.0.~ L L L L L L =.0.0.0.0.0.0.0.0.0.% $ S S S S ",
"S S w   &.0.0.@.L L G k k k L L #.2.%.%.%.7.0.0.0.0.0.%.  w S S ",
"S S w   Y @.@.] L d ,       L L L L       z T 0.0.0.0.%.  w S S ",
"S S w   k L L L L X - _ t   L L L L   > _ - % 0.0.0.0.%.  w S S ",
"S   , L L           > $.a             s $.>           L L ,   S ",
"S   @ i D i i i i i j [ c i i i i i i c [ j i i i i i b i @   S ",
"S       k L L L L L L L L L L L L L L L L L L L L L L k       S ",
"S       k ! $.$.$.Q L L L L L L L L L L L L L ) $.$.$.k       S ",
"S       k P [ [ [ P L L L L ^ @.@.~ L L L L L ! [ [ [ k       S ",
"S   * k , * * * * D L L L L ] 0.0.' L L L L L v * * * , k ;   S ",
"S   , L u & & X   D L L L ` +.0.0.+.] L L L L k   X & u L ,   S ",
"S   , L L L L i   D b i v 8.0.0.0.0.8.v i D L k   f L L L ,   S ",
"S   , L L G * X   D k   U 0.0.0.0.0.9.R   k L k   @ D L L ,   S ",
"S   , L L b   % = F H r &.0.0.0.0.0.0. .r H K x %   D L L ,   S ",
"S   , L L b   g n n { 0.0.0.0.0.0.0.0.0.0.X.n n p   D L L ,   S ",
"S V e * v b   g n n ..1.<.<.<.<.<.<.<.<.1.O.n n g   D v * 7 V S ",
"S S w   k b   I 0.5.*.*.*.*.*.*.*.*.*.*.*.*.6.0.I   D k   w S S ",
"S S w   k b   I 0.:.*.*.*.*.*.*.*.*.*.*.*.*.<.0.I   D k   w S S ",
"S S C V 2 @   I 0.;.| < W *.*.*.*.*.*./ < | ;.0.I   * 3 V A S S ",
"S S S S 5 $   l %.-.} < ( *.*.*.*.*.*.W < | 3.%.l   + 5 B m B S ",
"S S S S S C       ,.:.*.*.*.*.*.*.*.*.*.*.<.>.      Z S B m B S ",
"S S S S S C       r r 1 < < < < < < < < 1 r :       M m B S S S ",
"S S S S S C $ O             $ $ $ $             O $ N m B S S S ",
"S S S S S S S 8             S S S S             8 S S S S S S S ",
"S S S S S S S C V o         S S S S         . V C S S S S S S S ",
"S S S S S S S S S S S S S S S S S S S S S S S S S S S S S S S S "
};
