/* XPM */
static char *result[] = {
/* columns rows colors chars-per-pixel */
"32 32 153 2 ",
"   c #420D07",
".  c #49120B",
"X  c #4B150E",
"o  c #42180C",
"O  c #4F180F",
"+  c #50180F",
"@  c #561E13",
"#  c #541D15",
"$  c #422311",
"%  c #422411",
"&  c #412F17",
"*  c #5D2417",
"=  c #57241E",
"-  c #59251E",
";  c #423A1B",
":  c #413B1C",
">  c #54341F",
",  c #5A2B26",
"<  c #662E24",
"1  c #693228",
"2  c #6F352B",
"3  c #713423",
"4  c #783A27",
"5  c #6B3B34",
"6  c #713F35",
"7  c #783E32",
"8  c #384823",
"9  c #2C6833",
"0  c #297C3C",
"q  c #414620",
"w  c #504624",
"e  c #544B29",
"r  c #425126",
"t  c #714028",
"y  c #7F4436",
"u  c #7F4C31",
"i  c #6E583A",
"p  c #48632F",
"a  c #416830",
"s  c #417335",
"d  c #417435",
"f  c #407F3A",
"g  c #7C4644",
"h  c #714945",
"j  c #715143",
"k  c #7D5955",
"l  c #656B43",
"z  c #85452F",
"x  c #884832",
"c  c #814639",
"v  c #8D5739",
"b  c #945137",
"n  c #935138",
"m  c #945138",
"M  c #9B573C",
"N  c #8A4E40",
"B  c #8E5241",
"V  c #935647",
"C  c #9C5E4F",
"Z  c #885151",
"A  c #A25C40",
"S  c #93624C",
"D  c #9E6758",
"F  c #A86244",
"G  c #AF6848",
"H  c #B16A4B",
"J  c #B36D4E",
"K  c #A56756",
"L  c #AB6850",
"P  c #A16C5F",
"I  c #AF6B5D",
"U  c #AE6F5D",
"Y  c #B36D50",
"T  c #B97358",
"R  c #BD735B",
"E  c #BC775B",
"W  c #896864",
"Q  c #936863",
"!  c #AC7C6E",
"~  c #B07665",
"^  c #AB777A",
"/  c #C07F6B",
"(  c #C17D6C",
")  c #D56E72",
"_  c #CD7077",
"`  c #D0747D",
"'  c #D6747E",
"]  c #DE707D",
"[  c #168041",
"{  c #109049",
"}  c #2B9748",
"|  c #28AA51",
" . c #408A40",
".. c #419645",
"X. c #4A9347",
"o. c #40A14A",
"O. c #40AD4F",
"+. c #41AD50",
"@. c #40B955",
"#. c #40C45A",
"$. c #948279",
"%. c #B98A7E",
"&. c #C0806C",
"*. c #C98873",
"=. c #CB8A79",
"-. c #D08E76",
";. c #D5887B",
":. c #CB907D",
">. c #D2907A",
",. c #D1947F",
"<. c #D4947E",
"1. c #B67F82",
"2. c #B68689",
"3. c #B08F8A",
"4. c #C79483",
"5. c #CE9480",
"6. c #D59782",
"7. c #D09D8A",
"8. c #D89E8A",
"9. c #CE969C",
"0. c #DDA18B",
"q. c #DAA593",
"w. c #DDAB9B",
"e. c #DDAC9B",
"r. c #E2A893",
"t. c #E3A994",
"y. c #E6AD98",
"u. c #E8B09C",
"i. c #DAA2A8",
"p. c #EBADAF",
"a. c #E0B2A4",
"s. c #E7B9A7",
"d. c #E3B9AC",
"f. c #E5ADB4",
"g. c #F4AFB9",
"h. c #F3C2AD",
"j. c #F4C1AD",
"k. c #E8C7BC",
"l. c #E5BCC1",
"z. c #F0B9C0",
"x. c #F8B9C3",
"c. c #FABFC8",
"v. c #EACEC4",
"b. c #F9C1C9",
"n. c #FCC4CD",
"m. c #E2D3CF",
"M. c #EED5CC",
"N. c #F3E3DD",
"B. c #E8E1E0",
"V. c #FDE1E6",
"C. c #F7EAE6",
"Z. c #FAF1EE",
"A. c white",
/* pixels */
"#.#.#.#.#.#.#.#.#.#.#.#.#.#.#.#.#.#.#.#.#.#.#.#.#.#.#.#.#.#.#.#.",
"#.#.#.#.#.#.#.#.#.#.#.#.#.#.#.#.#.#.#.#.#.#.#.#.#.#.#.#.#.#.#.#.",
"#.#.#.#...  % #.#.$   d @.+.......o.o.........#.#.#.#.#.#.#.#.#.",
"#...r r l ! % #.#.$ ! - ..r       r $       % #.#.#.#.#.#.#.#.#.",
"#.s # X 6 s.% +.+.$ s.6 o S &.&.&.S k B.B.m.2 $ a #.#.#.#.#.#.#.",
"#.$ &.U 6 s.        s.D 7 U >.>.>.C W A.Z.v.C 7   +.#.#.#.#.#.#.",
"#.$ :.4.1 ,.U U U U 0.<.>.>.y.j.t.C W A.N.>.>.>.U e +.#.#.#.#.#.",
"#.$ 5.7.c >.>.8.e.q.>.>.>.>.u.h.r.C 7 >.>.>.>.>.>.2 X.@.#.#.#.#.",
"#.$ &.>.>.>.>.k.A.M.>.>.>.>.>.U N N K >.>.6.k.k.k.6.# ..#.#.#.#.",
"#.+.> 7 >.>.>.k.A.M.>.>.>.>.-.B O y >.>.>.q.A.A.A.e.V q #.#.#.#.",
"#.#.$ < / K >.k.A.M.>.K *.>.E G G E >.>.>.M.A.A.A.A.P % ..#.#.#.",
"#.#.$ < U = M.C.A.Z.M.5 U >.E G G E >.>.q.Z.A.A.A.A.3.  : #.#.#.",
"#.$ ( ;.I , A.A.A.A.A.h U ;.R G G E >.>.e.A.A.A.A.A.A.%.  % #.#.",
"a $.' ] _ ^ V.V.V.V.V.2.` ] ) G G E >.>.e.A.A.A.A.A.A.%.  % #.#.",
"  l.b.g.c.n.n.n.n.n.n.n.x.g.p.p.G E >.>.6.w.a.A.A.A.d.~ @ v q #.",
"  f.n.n.n.n.n.n.n.n.n.n.n.n.n.n.G E >.>.>.>.6.M.M.M.6.U * A % #.",
"  f.n.n.n.n.n.n.n.n.n.n.n.n.n.n.G E >.>.>.>.>.>.>.>.>.U * A % #.",
"  f.n.g i.n.n.n.n.n.n.g i.n.n.n.G E >.>.>.>.>.>.>.>.>.U   * b $ ",
"a Q z.1.f.n.n.n.n.n.n.1.f.n.n.n.G E >.>.>.>.>.>.>.>.>.U % p 3   ",
"#.$ f.n.n.n.n.n.n.n.n.n.n.n.n.n.G E >.>.>.>.>.>.>.>.>.U : O.    ",
"#.#.$ 9.n.n.n.n.n.n.n.n.n.n.=.G G E >.>.>.>.>.>.>.>.>.U : #.#.#.",
"#.#. .j Z Z Z Z Z z.n.n.n.n.=.G G E >.>.>.>.>.>.>.>.U i  .#.#.#.",
"#.#.#.r % % % o   L T T T T Y G G H J J J J J J J J x : #.#.#.#.",
"#.#.#.#.#.#.#.a   A G G G G G G G G G G G G G G G G z : #.#.#.#.",
"#.#.#.#.#.#.#.a   * * M G G G G G G G G G G G G G b w o.#.#.#.#.",
"#.#.#.#.#.#.#.f     & u F G G A n n n n n n G G A t s #.| { | #.",
"#.#.#.#.#.#.#.#.    +.; m G G 4           + G G 4 r #.#.| { | #.",
"#.#.#.#.#.#.#.#.+.+.#.; . O O p +.+.} [ 9   O O . o.| { | #.#.#.",
"#.#.#.#.#.#.#.#.#.#.#.;     :  .#.#.| { 0       8 @.| { | #.#.#.",
"#.#.#.#.#.#.#.#.#.#.#.;     f #.#.#.#.#...      #.#.#.#.#.#.#.#.",
"#.#.#.#.#.#.#.#.#.#.#.#.#.#.#.#.#.#.#.#.#.#.#.#.#.#.#.#.#.#.#.#.",
"#.#.#.#.#.#.#.#.#.#.#.#.#.#.#.#.#.#.#.#.#.#.#.#.#.#.#.#.#.#.#.#."
};
