/* XPM */
static char *result[] = {
/* columns rows colors chars-per-pixel */
"32 32 151 2 ",
"   c #420D07",
".  c #49120B",
"X  c #41180C",
"o  c #4F180F",
"O  c #561D13",
"+  c #541D15",
"@  c #422311",
"#  c #422411",
"$  c #422F16",
"%  c #5D2317",
"&  c #5D2417",
"*  c #57241D",
"=  c #4B371D",
"-  c #423A1B",
";  c #413B1C",
":  c #592B26",
">  c #543420",
",  c #662D23",
"<  c #65322A",
"1  c #683228",
"2  c #6F362B",
"3  c #713523",
"4  c #783A27",
"5  c #713F35",
"6  c #783E32",
"7  c #3A7839",
"8  c #414620",
"9  c #415126",
"0  c #56572D",
"q  c #595332",
"w  c #65442D",
"e  c #6E433D",
"r  c #7F4436",
"t  c #7F4B31",
"y  c #785232",
"u  c #48622F",
"i  c #416830",
"p  c #417335",
"a  c #417435",
"s  c #417F3A",
"d  c #714A45",
"f  c #7D5954",
"g  c #7C6854",
"h  c #86452F",
"j  c #884832",
"k  c #8D4B33",
"l  c #814639",
"z  c #935137",
"x  c #935138",
"c  c #945138",
"v  c #9A573B",
"b  c #9A573C",
"n  c #8A4E40",
"m  c #8E5241",
"M  c #935648",
"N  c #9C5F4F",
"B  c #885251",
"V  c #955F51",
"C  c #A25D40",
"Z  c #93624C",
"A  c #A86244",
"S  c #AF6848",
"D  c #B16A4B",
"F  c #B36D4E",
"G  c #A56756",
"H  c #AB6850",
"J  c #A26C5F",
"K  c #AF6B5D",
"L  c #AE6F5D",
"P  c #B36D50",
"I  c #B97358",
"U  c #BC775B",
"Y  c #886864",
"T  c #936863",
"R  c #AC7C6E",
"E  c #B17665",
"W  c #AB777A",
"Q  c #C0755F",
"!  c #C07F6B",
"~  c #C17C6C",
"^  c #D56F73",
"/  c #CD7077",
"(  c #D0747D",
")  c #DE707D",
"_  c #168041",
"`  c #109049",
"'  c #2B9748",
"]  c #28AA51",
"[  c #418A40",
"{  c #419645",
"}  c #41A24A",
"|  c #40AD4F",
" . c #40AD50",
".. c #40B955",
"X. c #40C45A",
"o. c #948279",
"O. c #B98B7E",
"+. c #C0806C",
"@. c #C98873",
"#. c #CB8B7A",
"$. c #CA8F7C",
"%. c #D08E76",
"&. c #D5887B",
"*. c #D2907A",
"=. c #D1947F",
"-. c #D5947E",
";. c #B67F83",
":. c #D87C86",
">. c #B78789",
",. c #B08F89",
"<. c #C79583",
"1. c #CE9481",
"2. c #D59782",
"3. c #D09D8A",
"4. c #D79E8A",
"5. c #D89E8A",
"6. c #CD969B",
"7. c #DDA18B",
"8. c #DAA593",
"9. c #DDAB9B",
"0. c #DDAC9B",
"q. c #E2A893",
"w. c #E3A994",
"e. c #E5AD98",
"r. c #E8B19C",
"t. c #E8ADAC",
"y. c #E0B2A4",
"u. c #E7B9A7",
"i. c #E3B9AC",
"p. c #E4ADB4",
"a. c #EEAEB3",
"s. c #F4AFB9",
"d. c #E5B7BD",
"f. c #F3C2AD",
"g. c #F4C1AD",
"h. c #E8C7BC",
"j. c #F0B8C0",
"k. c #F8B9C3",
"l. c #FABFC8",
"z. c #EBCEC4",
"x. c #FCC4CD",
"c. c #E2D3CF",
"v. c #EED5CC",
"b. c #FBCAD1",
"n. c #F4E3DE",
"m. c #E8E1E0",
"M. c #FDE1E6",
"N. c #F7EAE6",
"B. c #FAF1EE",
"V. c #FCF8F7",
"C. c white",
/* pixels */
"X.X.X.X.X.X.X.X.X.X.X.X.X.X.X.X.X.X.X.X.X.X.X.X.X.X.X.X.X.X.X.X.",
"X.X.X.X.X.X.X.X.X.X.X.X.X.X.X.X.X.X.X.X.X.X.X.X.X.X.X.X.X.X.X.X.",
"X.X.X.X.X.X.X.X.X.} { { { {  .{ { { } ..p   # X.X.@   { X.X.X.X.",
"X.X.X.X.X.X.X.X.X.@       # 9       9 { < R # X.X.@ R q 9 9 { X.",
"X.X.X.X.X.X.X.i @ 2 c.m.m.f Z +.+.+.Z @ 5 u.#  . .@ u.5 + + a X.",
"X.X.X.X.X.X.|   6 N z.V.C.Y N *.*.*.L 6 V u.        u.5 L ! # X.",
"X.X.X.X.X...= L *.*.*.n.C.Y N w.g.r.*.*.-.=.L L L L 7.1 <.1.# X.",
"X.X.X.X...s 6 *.*.*.*.*.*.6 N q.f.e.*.*.*.*.5.0.5.*.*.l 3.$.# X.",
"X.X.X.X.{ + 2.h.h.h.2.*.*.G n n L *.*.*.*.*.v.C.h.*.*.*.*.! # X.",
"X.X.X.X.8 M 0.C.C.C.8.*.*.*.r o m %.*.*.*.*.v.C.h.*.*.*.2 >  .X.",
"X.X.X.[ $ J C.C.C.C.v.*.*.*.U S S U *.! L *.v.C.h.*.G @., # X.X.",
"X.X.X.-   ,.C.C.C.C.B.4.*.*.U S S U *.L e v.B.C.N.v.* L , # X.X.",
"X.X.@   O.C.C.C.C.C.C.9.*.*.U S S Q &.K d C.C.C.C.C.: L &.~ # X.",
"X.X.@   O.C.C.C.C.C.C.9.*.*.U S S ^ ) / >.M.M.M.M.M.W ( ) :.o.i ",
"X.9 h O E y.C.C.C.i.9.2.*.*.U S t.a.s.l.x.x.x.x.x.x.x.k.s.b.d.  ",
"X.@ C % L 2.v.v.v.2.*.*.*.*.U S x.x.x.x.x.x.x.x.x.x.x.x.x.x.p.  ",
"X.@ C % L *.*.*.*.*.*.*.*.*.U S x.x.x.x.x.x.x.x.x.x.x.x.x.x.p.  ",
"@ c % . L *.*.*.*.*.*.*.*.*.U S x.x.x.6.B x.x.x.x.x.x.6.B x.p.  ",
"  3 u # L *.*.*.*.*.*.*.*.*.U S x.x.x.p.;.x.x.x.x.x.x.p.;.j.T i ",
"     .- L *.*.*.*.*.*.*.*.*.U S x.x.x.x.x.x.x.x.x.x.x.x.x.p.# X.",
"X.X.X.- L *.*.*.*.*.*.*.*.*.U S S #.x.x.x.x.x.x.x.x.x.x.6.# X.X.",
"X.X.X.{ w L *.*.*.*.*.*.*.*.U S S #.x.x.x.x.j.B B B B B g [ X.X.",
"X.X.X.X.- j F F F F F F F F D S S P I I I I H   X # # # 8 X.X.X.",
"X.X.X.X.- h S S S S S S S S S S S S S S S S C   i X.X.X.X.X.X.X.",
"X.X.X.X.} 0 k S S S S S S S S S S S S S b & O   i X.X.X.X.X.X.X.",
"X.X.X.X.X.i y C S S v x x x x x C S S A t ;     7 X.X.X.] ` ] X.",
"X.X.X.X.X.X.9 4 S S o           4 S S z ; |     ] X.X.X.] ` ] X.",
"X.X.X.X.X.X.} . o o   [  . . . .u o o o ; X.' _ ] X.] ` ] X.X.X.",
"X.X.X.X.X.X...9       { X.X.X.X.[ ;     ; X.] ` ] X.] ` ] X.X.X.",
"X.X.X.X.X.X.X.X.      { X.X.X.X.X.s     ; X.X.X.X.X.X.X.X.X.X.X.",
"X.X.X.X.X.X.X.X.X.X.X.X.X.X.X.X.X.X.X.X.X.X.X.X.X.X.X.X.X.X.X.X.",
"X.X.X.X.X.X.X.X.X.X.X.X.X.X.X.X.X.X.X.X.X.X.X.X.X.X.X.X.X.X.X.X."
};
