/* XPM */
static char *result[] = {
/* columns rows colors chars-per-pixel */
"32 32 174 2 ",
"   c #3C3C25",
".  c #471E16",
"X  c #481E16",
"o  c #472619",
"O  c #4A2018",
"+  c #49271B",
"@  c #47281B",
"#  c #49281C",
"$  c #561C25",
"%  c #5D1D2C",
"&  c #6A1C39",
"*  c #6B2528",
"=  c #73292B",
"-  c #752B2D",
";  c #772C2F",
":  c #7C2C2F",
">  c #7C2D31",
",  c #2F5424",
"<  c #246435",
"1  c #276A3A",
"2  c #434427",
"3  c #474829",
"4  c #46532C",
"5  c #475035",
"6  c #7D4B3E",
"7  c #695239",
"8  c #69553A",
"9  c #436733",
"0  c #466735",
"q  c #44773B",
"w  c #45783C",
"e  c #457C3E",
"r  c #751743",
"t  c #741942",
"y  c #771946",
"u  c #565A49",
"i  c #4F7D41",
"p  c #7D4E6B",
"a  c #675F6F",
"s  c #7C5468",
"d  c #69616F",
"f  c #736965",
"g  c #776C64",
"h  c #812C33",
"j  c #873036",
"k  c #893036",
"l  c #DA2626",
"z  c #DA2828",
"x  c #851453",
"c  c #861655",
"v  c #821851",
"b  c #8D1852",
"n  c #AE1F40",
"m  c #912946",
"M  c #A33444",
"N  c #B53B4B",
"B  c #B73A4E",
"V  c #B53C4C",
"C  c #A2235A",
"Z  c #A52359",
"A  c #A32558",
"S  c #A7265B",
"D  c #AB2A5E",
"F  c #B13353",
"G  c #BF3E51",
"H  c #BE3B54",
"J  c #BF3260",
"K  c #C23A58",
"L  c #CB3762",
"P  c #CC3763",
"I  c #CA3961",
"U  c #D23B64",
"Y  c #DB3F67",
"T  c #CB4257",
"R  c #EF4766",
"E  c #E24268",
"W  c #EB476A",
"Q  c #F44963",
"!  c #F54964",
"~  c #F74D6B",
"^  c #F74D6C",
"/  c #F84D6B",
"(  c #F84D6C",
")  c #08B13B",
"_  c #42853F",
"`  c #12914A",
"'  c #14924D",
"]  c #16944D",
"[  c #1F9E4F",
"{  c #178C5A",
"}  c #318D44",
"|  c #329047",
" . c #23995F",
".. c #26A650",
"X. c #28AA51",
"o. c #32B355",
"O. c #33B457",
"+. c #36B758",
"@. c #3ABD58",
"#. c #3FBE5F",
"$. c #369F6D",
"%. c #308979",
"&. c #359971",
"*. c #36937C",
"=. c #369878",
"-. c #37A06D",
";. c #3EB963",
":. c #3FBC60",
">. c #3DB36A",
",. c #3FB968",
"<. c #438942",
"1. c #439045",
"2. c #419747",
"3. c #4D9349",
"4. c #4E9449",
"5. c #419A49",
"6. c #41A14B",
"7. c #40AE50",
"8. c #40B754",
"9. c #3FC359",
"0. c #40C359",
"q. c #40C45A",
"w. c #EBAA11",
"e. c #ECAB11",
"r. c #EAAF10",
"t. c #EBB210",
"y. c #EAC110",
"u. c #EBD110",
"i. c #EADB10",
"p. c #EBDC10",
"a. c #EBE810",
"s. c #ECE910",
"d. c #878271",
"f. c #888271",
"g. c #879F71",
"h. c #313F94",
"j. c #1831A7",
"k. c #1A33A8",
"l. c #1D35A9",
"z. c #1C38AC",
"x. c #1F3CAD",
"c. c #293EA1",
"v. c #19538B",
"b. c #1C5392",
"n. c #245E8E",
"m. c #344195",
"M. c #394592",
"N. c #3C4792",
"B. c #3A4E9E",
"V. c #3C5092",
"C. c #1E7E94",
"Z. c #26618F",
"A. c #286390",
"S. c #29619A",
"D. c #307999",
"F. c #2D45A1",
"G. c #364CA2",
"H. c #2143B4",
"J. c #2445B5",
"K. c #3379AE",
"L. c #347AAF",
"P. c #3D65BD",
"I. c #5E729C",
"U. c #6B768D",
"Y. c #6C778D",
"T. c #60749D",
"R. c #704EA0",
"E. c #2D5ECA",
"W. c #3060CB",
"Q. c #974286",
"!. c #984286",
"~. c #AE5590",
"^. c #399F80",
"/. c #3A9E85",
/* pixels */
"q.q.q.q.q.q.q.q.q.q.q.q.q.q.q.q.q.q.q.q.q.q.q.q.q.q.q.q.q.q.q.q.",
"q.q.q.q.q.0.0.q.9.9.9.q.0.0./.E.E.E.E.q.0.0.0.q.9.0.q.0.0.q.q.q.",
"q.q.q.q.q.0.0.q.9.9.&.%.%.%.D.E.E.E.E.%.%.%.%.;.9.0.q.0.0.q.q.q.",
"q.q.q.0.0.0.0.0.9.9.A.k.l.l.J.E.W.W.E.k.l.l.l.$.9.9.0.0.0.q.q.q.",
"q.q.q.0.0.0.0.0.+.O.n.k.l.l.G.U.U.Y.U.k.l.l.l.$.9.9.0.0.0.q.q.q.",
"q.q.q.0.0.9.9.0.[ ' v.k.l.l.d w.w.w.w.k.l.l.l.-.9.0.0.9.0.q.q.q.",
"q.q.q.9.9.9.9.9. .{ b.z.c.m.f t.r.w.w.h.m.z.z.*.,.#.9.9.9.q.q.q.",
"q.q.q.9.9.9.9.9.L.W.W.E.f.w.y.a.i.w.w.w.w.P.W.E.W.^.9.9.9.q.q.q.",
"q.q.q.q.q.0.0.q.K.E.E.E.d.w.y.s.p.w.e.e.w.P.E.E.E.^.q.0.0.q.q.q.",
"q.q.q.q.q.0.0.q.K.E.E.E.g.a.u.e.w.w.e.e.w.P.E.E.E.^.q.0.0.q.q.q.",
"q.q.q.q.q.0.0.q.K.E.E.E.g.a.u.e.w.w.e.e.w.P.E.E.E.^.q.0.0.q.q.q.",
"q.q.q.0.0.0.0.0.;.>.S.z.F.V.g w.w.w.w.M.N.x.z.=.>.:.0.0.0.q.q.q.",
"q.q.q.0.0.0.0.0.9.9.A.k.l.l.a w.w.w.w.k.l.l.l.$.9.9.0.0.0.q.q.q.",
"q.q.q.0.0.9.9.0.9.9.A.k.l.l.B.I.T.I.I.k.l.l.l.-.9.0.0.9.0.q.q.q.",
"q.q.q.q.q.0.0.q.9.9.Z.j.k.k.H.E.E.E.E.j.k.k.k.$.9.0.q.0.0.q.q.q.",
"q.q.q.9.9.9.9.9.e 0 p Q.Q.Q.R.E.W.W.E.Q.Q.Q.!.u 0 | ..o.9.q.q.q.",
"q.q.q.0.0.0.0.0.3 O G ( ^ ^ ~.E.W.W.E.( ^ ^ ^ = O 1 ` ..9.q.q.q.",
"q.q.q.q.q.0.<._ 6 k F P K V s C.C.C.C.N V I L M k 5 < } 0.q.q.q.",
"q.q.q.0.0.0.# X T ^ D c & O , ) ) ) ) X O v c Y ^ k X 0 0.q.q.q.",
"q.q.q.0.0.0.# X T ^ J Z m > 8 4.3.3.4.: > A S E ^ k X 0 0.q.q.q.",
"q.q.q.0.0.9.+ . T ^ ^ ( ^ ^ ^ ( ^ ^ ( ( ^ ^ ^ ( ^ j . 0 0.q.q.q.",
"q.q.q.q.q.0.o . H W ^ ( ( ( ( ( ( ( ( ( ( ( ( W W h . 9 0.q.q.q.",
"q.q.q.9.9.9.# X y c U ( ^ ^ ^ ( ^ ^ ( ( ^ ^ ^ C c % X 0 9.q.q.q.",
"q.q.q.q.q.0.@ . r x U ^ ^ / / ( ~ ~ ( ( / ^ ^ C x % . 9 0.q.q.q.",
"q.q.q.0.0.0.] `   O t x n z z l z z l l z b c $ O <.0.0.9.q.q.q.",
"q.q.q.0.0.0.] `   O t x n z z l z z l l z b c $ O <.0.0.9.` X.q.",
"q.q.q.q.q.0.@.@.2 X B W R Q ! ! Q ! ! ! Q W W * X <.q.0.0.` X.q.",
"q.q.q.0.0.9.9.0.3 O G ( ^ ^ ^ ( ^ ^ ( ( ^ ^ ^ = O <.0.9.0.q.q.q.",
"q.q.q.0.0.9.9.0.6.2.7 - ; ; ; - ; - - - ; ; ; i 2.8.0.9.0.q.q.q.",
"q.q.q.q.q.0.0.q.9.9.4 . . . . . X X . . . . . 5.9.0.q.0.0.q.q.q.",
"q.q.q.9.9.9.9.9.9.9.1.q w w w q q w q q w w w 7.9.9.9.9.9.q.q.q.",
"q.q.q.q.q.q.q.q.q.q.q.q.q.q.q.q.q.q.q.q.q.q.q.q.q.q.q.q.q.q.q.q."
};
