/* XPM */
static char *result[] = {
/* columns rows colors chars-per-pixel */
"32 32 159 2 ",
"   c #507E6D",
".  c #A24A5B",
"X  c #9E5A70",
"o  c #9D5E76",
"O  c #A14E61",
"+  c #A2456A",
"@  c #A15366",
"#  c #9D637B",
"$  c #C57E45",
"%  c #C77049",
"&  c #699E31",
"*  c #109049",
"=  c #28AA51",
"-  c #3EBE5F",
";  c #388260",
":  c #2D917D",
">  c #37AB6B",
",  c #36AA6C",
"<  c #3BB763",
"1  c #3CB763",
"2  c #3CB863",
"3  c #38B168",
"4  c #40A847",
"5  c #43B85E",
"6  c #7CBF41",
"7  c #4A9667",
"8  c #46AC61",
"9  c #4CC355",
"0  c #40C45A",
"q  c #58C250",
"w  c #6FC146",
"e  c #70C045",
"r  c #93B02D",
"t  c #87BE3B",
"y  c #9FBD31",
"u  c #A5A821",
"i  c #B7BB27",
"p  c #B7BC27",
"a  c #FFB609",
"s  c #ECA019",
"d  c #FDBE13",
"f  c #FDBE14",
"g  c #D89435",
"h  c #EBA924",
"j  c #AAC031",
"k  c #CDC32F",
"l  c #CBCA32",
"z  c #D6CD32",
"x  c #F9CE29",
"c  c #F7D633",
"v  c #F5DE3D",
"b  c #F1EF53",
"n  c #F1EF54",
"m  c #EFF75E",
"M  c #6B0A8D",
"N  c #7C149A",
"B  c #7B2787",
"V  c #7C2887",
"C  c #603980",
"Z  c #633AA9",
"A  c #2E4C97",
"S  c #345693",
"D  c #1A6596",
"F  c #1F6C98",
"G  c #206C98",
"H  c #1B5FA1",
"J  c #2A6FAD",
"K  c #2A70AD",
"L  c #3669B4",
"P  c #277AB8",
"I  c #456FB5",
"U  c #5B6BC5",
"Y  c #6460C3",
"T  c #696CCF",
"R  c #860CA0",
"E  c #930DA9",
"W  c #940DA9",
"Q  c #AE0FBD",
"!  c #A61BBF",
"~  c #8835A2",
"^  c #9F28B5",
"/  c #9025B8",
"(  c #9F32B5",
")  c #A033B5",
"_  c #A03CB6",
"`  c #8E46A4",
"'  c #A265B8",
"]  c #BC11C6",
"[  c #BE16C7",
"{  c #C312CB",
"}  c #C912D0",
"|  c #D713D9",
" . c #DB1CDD",
".. c #C13CCF",
"X. c #CC27D4",
"o. c #D922DB",
"O. c #DC26DD",
"+. c #DC31DD",
"@. c #D836DE",
"#. c #DE25E0",
"$. c #DF2FE1",
"%. c #E22EE4",
"&. c #E338E5",
"*. c #B744D0",
"=. c #C145C6",
"-. c #D347DD",
";. c #D947E1",
":. c #E647E7",
">. c #E14EE3",
",. c #E74CE9",
"<. c #EE49EF",
"1. c #E551EA",
"2. c #F252F3",
"3. c #F456F5",
"4. c #F65BF7",
"5. c #E66CE8",
"6. c #ED7DEF",
"7. c #F367F5",
"8. c #F765F8",
"9. c #F76FF8",
"0. c #298486",
"q. c #2B8B81",
"w. c #2A869A",
"e. c #3E989D",
"r. c #3A81B9",
"t. c #4E9EBC",
"y. c #3AA3DB",
"u. c #6394DA",
"i. c #53A0C6",
"p. c #58A2D0",
"a. c #67B3DC",
"s. c #68B3DC",
"d. c #539BE2",
"f. c #549BE1",
"g. c #50B3F0",
"h. c #6FBBE2",
"j. c #6FBCE2",
"k. c #4CCCFE",
"l. c #50CDFE",
"z. c #5ED2FE",
"x. c #73CEF3",
"c. c #6CD7FE",
"v. c #79DBFE",
"b. c #F082F1",
"n. c #F884F9",
"m. c #F999FA",
"M. c #86D5F3",
"N. c #82DEFE",
"B. c #8CE2FF",
"V. c #95E5FF",
"C. c #A2E8FF",
"Z. c #AFEBFF",
"A. c #B6EDFF",
"S. c #BDEEFF",
"D. c #C3F0FF",
"F. c #D7F6FF",
"G. c #F2FBFF",
"H. c #F2FCFF",
"J. c white",
/* pixels */
"0 0 0 0 0 0 0 0 0 0 0 0 0 0 0 0 0 0 0 0 0 0 0 0 0 0 0 0 0 0 0 0 ",
"0 0 0 0 0 0 0 0 0 0 0 0 0 0 0 0 0 0 0 0 0 0 0 0 0 0 0 0 0 0 0 0 ",
"0 0 0 0 0 0 0 0 0 0 0 0 0 F H H H H H G 0 0 0 0 0 0 0 0 0 0 0 0 ",
"0 0 0 0 0 0 0 0 0 - : : : i.p.p.p.p.p.i.: : : - 0 0 0 0 0 0 0 0 ",
"0 0 0 0 0 0 0 0 0 < H H H M.V.V.V.V.V.M.H H H 1 0 0 0 0 0 0 0 0 ",
"0 0 0 0 0 0 0 0 0.K V.V.V.H.J.J.Z.V.V.V.V.V.V.J 0.0 0 0 0 0 0 0 ",
"0 0 0 0 0 0 3 0.t.j.V.A.F.S.S.S.C.V.V.V.V.V.V.h.t.0.2 0 0 0 0 0 ",
"0 0 0 0 0 0 , H a.V.V.D.G.C.V.V.V.V.V.V.V.V.V.V.a.H > 0 0 0 0 0 ",
"0 0 0 0 0 0 , H a.V.V.V.V.V.V.V.V.V.V.V.V.V.V.V.a.H > 0 0 0 0 0 ",
"0 0 0 0 0 q.e.s.M.V.V.V.V.V.V.V.V.V.V.V.V.V.V.V.x.y.w.q.0 0 0 0 ",
"0 0 0 0 0 F r.V.V.V.V.V.V.V.V.V.V.V.V.V.V.V.V.V.v.k.P G 0 0 0 0 ",
"0 0 0 0 = D r.V.V.V.V.V.V.V.V.V.V.V.V.V.V.V.V.c.z.k.P G 0 0 0 0 ",
"0 0 0 5 ; A I N.B.V.V.V.V.V.V.V.V.V.V.V.V.N.N.l.k.k.L S 7 8 0 0 ",
"0 0 0   M M Z k.v.V.V.V.V.V.V.V.V.V.V.V.V.k.k.k.k.k.Z M M   0 0 ",
"0 0 C ~ -.-.*.Z u.z.z.z.z.z.z.z.z.z.z.z.z.k.k.k.f.Z ! [ -.` C 0 ",
"0 0 M ) n.8.;.R T d.d.g.k.k.k.k.k.k.k.k.k.g.d.d.Y R {  .n._ M 0 ",
"0 0 M ' J.9.<.| E M M U k.k.k.k.k.k.k.k.k.U M M W | | +.J.' M 0 ",
"0 0 M _ n.4.3.<.X.] ] / Z Z Z Z Z Z Z Z Z / ] ] } | | O.n.( M 0 ",
"0 0 M ^ 4.4.8.n.,.#.| Q R R R R R R R R R Q | | o.>.$.%.4.^ M 0 ",
"0 0 M ^ 4.4.n.J.m.2.| | | | | | | | | | | | | | 5.J.n.4.4.^ M 0 ",
"0 0 s % N 1.4.9.8.4.2.2.2.7.b.o.| o.5.+.| | | | &.9.8.1.N % s 0 ",
"0 0 a g # =.....1.4.4.4.4.m.J.:.%.:.J.6.%.%.%.%.@.....=.# g a 0 ",
"0 0 a x m B M M ..4.4.4.4.8.9.4.4.4.9.8.4.4.4.4...M M V m x a 0 ",
"0 0 a x m h s s + N N N N N N N N N N N N N N N + s s h m x a 0 ",
"0 0 p l v x x x $ . . . . o X . . O # @ . . . . $ x x x v l p 0 ",
"0 0 0 t a n m m x a a a a n v a a f m x a a a a x m m b a & = 0 ",
"0 0 0 0 0 0 e a v m m m m d p 0 0 q a v m m m m v a w 0 = * = 0 ",
"0 0 0 0 0 0 q y z c c c c j 6 0 0 9 r k c c c c z y 4 * = 0 0 0 ",
"0 0 0 0 0 0 0 0 i a a a a q 0 0 0 0 = u a a a a p 0 = * = 0 0 0 ",
"0 0 0 0 0 0 0 0 0 0 0 0 0 0 0 0 0 0 0 0 0 0 0 0 0 0 0 0 0 0 0 0 ",
"0 0 0 0 0 0 0 0 0 0 0 0 0 0 0 0 0 0 0 0 0 0 0 0 0 0 0 0 0 0 0 0 ",
"0 0 0 0 0 0 0 0 0 0 0 0 0 0 0 0 0 0 0 0 0 0 0 0 0 0 0 0 0 0 0 0 "
};
