/* XPM */
static char *result[] = {
/* columns rows colors chars-per-pixel */
"32 32 141 2 ",
"   c #1C2B30",
".  c #232D30",
"X  c #505050",
"o  c #C8763B",
"O  c #90356C",
"+  c #109049",
"@  c #28AA51",
"#  c #3EBE5E",
"$  c #2B9D67",
"%  c #2D917D",
"&  c #319E75",
"*  c #37AB6B",
"=  c #36AA6C",
"-  c #3BB763",
";  c #54B145",
":  c #64B441",
">  c #48A164",
",  c #40C45A",
"<  c #64C14A",
"1  c #87BF3B",
"2  c #93BE36",
"3  c #9FBD32",
"4  c #AEB124",
"5  c #B7BC27",
"6  c #C3AC19",
"7  c #CFBA1D",
"8  c #FFB609",
"9  c #DA8B2A",
"0  c #CDC32F",
"q  c #D5C227",
"w  c #D6CC32",
"e  c #E3C828",
"r  c #F9CE29",
"t  c #EADB3D",
"y  c #F7D633",
"u  c #F5DE3D",
"i  c #BD9E6F",
"p  c #AD8075",
"a  c #C4814A",
"s  c #C28955",
"d  c #C1925F",
"f  c #B2CF42",
"g  c #B3DC56",
"h  c #E5C144",
"j  c #C5E152",
"k  c #F3E749",
"l  c #6B0A8D",
"z  c #603880",
"x  c #633BA9",
"c  c #3D6F81",
"v  c #24788F",
"b  c #1B5FA1",
"n  c #3669B4",
"m  c #277AB8",
"M  c #63478A",
"N  c #456FB5",
"B  c #940DA9",
"V  c #8E1EA7",
"C  c #AE0FBD",
"Z  c #873AA3",
"A  c #8549A2",
"S  c #B510C2",
"D  c #BC11C6",
"F  c #B032C2",
"G  c #D012D5",
"H  c #D713D9",
"J  c #D917DA",
"K  c #DE25E0",
"L  c #E22EE4",
"P  c #E432E6",
"I  c #E338E5",
"U  c #E637E8",
"Y  c #C242C0",
"T  c #D346DC",
"R  c #D670DF",
"E  c #D57ADF",
"W  c #EA40EC",
"Q  c #EC45EE",
"!  c #E748EB",
"~  c #E451EA",
"^  c #E856E9",
"/  c #F456F5",
"(  c #F65BF7",
")  c #E66CE7",
"_  c #E66CE8",
"`  c #EA75EB",
"'  c #F770F8",
"]  c #F77AF8",
"[  c #F87AF9",
"{  c #298486",
"}  c #2B8B82",
"|  c #398BA6",
" . c #3A81B9",
".. c #50DF82",
"X. c #59DF81",
"o. c #4EEB8A",
"O. c #4CFE81",
"+. c #57FE89",
"@. c #55FB91",
"#. c #69EE90",
"$. c #79FEA1",
"%. c #4992C5",
"&. c #53A0C6",
"*. c #5CAFC7",
"=. c #68B3DC",
"-. c #4CDFCE",
";. c #4CD2EE",
":. c #4CCCFE",
">. c #77C3E7",
",. c #77C4E8",
"<. c #7FCCEE",
"1. c #74D9FE",
"2. c #79DBFE",
"3. c #9AFEB7",
"4. c #9AFEB8",
"5. c #A5FEBF",
"6. c #EE97EE",
"7. c #F884F9",
"8. c #F98EFA",
"9. c #F999FA",
"0. c #D8A3E2",
"q. c #FBB7FC",
"w. c #82C8DF",
"e. c #B0DCC7",
"r. c #BBDBCF",
"t. c #B0FEC7",
"y. c #83C0E2",
"u. c #8CD7EF",
"i. c #85D4F3",
"p. c #82DEFE",
"a. c #8CE8EF",
"s. c #8CE2FF",
"d. c #95E5FF",
"f. c #A2E8FF",
"g. c #A8EAFF",
"h. c #BDEEFF",
"j. c #DFDFDF",
"k. c #FCD6FD",
"l. c #D1F3FF",
"z. c #D7F6FF",
"x. c #EFEFEF",
/* pixels */
", , , , , , , , , , , , , , , , , , , , , , , , , , , , , , , , ",
", , , , , , , , , , , , , , , , , , , , , , , , , , , , , , , , ",
", , , , , , , , , , , , , , , , , , , , , , , , , , , , , , , , ",
", , , , , , , , , , , , , , , , , , , , , , , , , , , , , , , , ",
", , , , , , , , , , , , , , , , , , , , , , , , , , , , , , , , ",
", , , , , , , , , , , , , = b b b b b * , , , , , , , , , , , , ",
", , , , , , , , , , , } v | ,.,.,.,.,.| v } , , , , , , , , , , ",
", , , , , , , , , , { *.=.y.z.z.f.d.d.>.=.&.{ , , , , , , , , , ",
", , , , , , , , - & %.<.g.h.z.z.g.d.d.d.d.i.%.& # , , , , , , , ",
", , , , , , , , $ b d.d.h.l.d.d.d.d.d.d.d.d.d.b * , , , , , , , ",
", , , , , , , , $ b d.d.d.d.d.d.d.d.d.d.d.d.d.b * , , , , , , , ",
", , , , @ + @ %  .d.d.d.d.d.d.d.d.d.d.d.d.d.d.:.m % , , , , , , ",
", , , , @ + @ %  .d.d.d.d.d.d.d.d.d.d.d.d.s.2.:.m % , , , , , , ",
", , , , , , > c N p.d.d.d.w.. e.@.r.  u.p.1.:.:.n c > , , , , , ",
", , , , , , z l x :.d.d.a.#.X j.$.x.X X.;.:.:.:.x l z , , , , , ",
", , , , , l T ( T l :.:.-.+.t.3.O.4.5.O.-.:.:.l D U T l , , , , ",
", , , , , l 0.9.! D x x ..O.O.O.O.O.O.O.o.x x D G ` 0.l , , , , ",
", , , , , l R ] / W C C A M M M M M M M Z C C H H ^ E l , , , , ",
", , , , , l T ( ' 9.L J S B B B B B B B S H H _ I Q T l , , , , ",
", , , , , O Y ~ [ k.( P K K K H H H H H H H H k.] ~ Y O , , , , ",
", , , , , 8 O F ( ( ( ( ( ( q.) H ) 6.H H H H ( ( F O 8 , , , , ",
", , , , , 8 k p l l ( ( ( ( 7.] ( ] 8.( ( ( ( l l p k 8 , , , , ",
", , , , , 8 k h 9 9 V V V V V V V V V V V V V 9 9 h k 8 , , , , ",
", , , , , 1 e y u u o o o a i o o s d o o o o u u y w 1 , , , , ",
", , , , , , 2 f j u r r r r u 5 4 0 u r r r r u g f 3 , , , , , ",
", , , , , , , , < 7 k k k t 7 , , 1 q k k k k 6 ; , , , @ + @ , ",
", , , , , , , , , , 8 8 8 7 , , , , : 8 8 8 8 + @ , , , @ + @ , ",
", , , , , , , , , , , , , , , , , , @ + @ , @ + @ , @ + @ , , , ",
", , , , , , , , , , , , , , , , , , @ + @ , @ + @ , @ + @ , , , ",
", , , , , , , , , , , , , , , , , , , , , , , , , , , , , , , , ",
", , , , , , , , , , , , , , , , , , , , , , , , , , , , , , , , ",
", , , , , , , , , , , , , , , , , , , , , , , , , , , , , , , , "
};
