/* XPM */
static char *result[] = {
/* columns rows colors chars-per-pixel */
"32 32 160 2 ",
"   c #121C20",
".  c #202020",
"X  c #507E6D",
"o  c #A24A5B",
"O  c #9E5A70",
"+  c #9D5E76",
"@  c #A14E61",
"#  c #A2456A",
"$  c #A15366",
"%  c #9D637B",
"&  c #C57E45",
"*  c #C77049",
"=  c #699E31",
"-  c #109049",
";  c #28AA51",
":  c #3EBE5F",
">  c #388260",
",  c #2D917D",
"<  c #37AB6B",
"1  c #36AA6C",
"2  c #3BB763",
"3  c #3CB763",
"4  c #3CB863",
"5  c #38B168",
"6  c #40A847",
"7  c #43B85E",
"8  c #7CBF41",
"9  c #4A9667",
"0  c #46AC61",
"q  c #4CC355",
"w  c #40C45A",
"e  c #58C250",
"r  c #6FC146",
"t  c #70C045",
"y  c #93B02D",
"u  c #87BE3B",
"i  c #9FBD31",
"p  c #A5A821",
"a  c #B7BB27",
"s  c #B7BC27",
"d  c #FFB609",
"f  c #ECA019",
"g  c #FDBE13",
"h  c #FDBE14",
"j  c #D89435",
"k  c #EBA924",
"l  c #AAC031",
"z  c #CDC32F",
"x  c #CBCA32",
"c  c #D6CD32",
"v  c #F9CE29",
"b  c #F7D633",
"n  c #F5DE3D",
"m  c #F1EF53",
"M  c #F1EF54",
"N  c #EFF75E",
"B  c #6B0A8D",
"V  c #7C149A",
"C  c #7B2787",
"Z  c #7C2887",
"A  c #603980",
"S  c #633AA9",
"D  c #2E4C97",
"F  c #345693",
"G  c #1A6596",
"H  c #1F6C98",
"J  c #206C98",
"K  c #1B5FA1",
"L  c #2A6FAD",
"P  c #2A70AD",
"I  c #3669B4",
"U  c #277AB8",
"Y  c #456FB5",
"T  c #6460C3",
"R  c #696CCF",
"E  c #860CA0",
"W  c #930DA9",
"Q  c #940DA9",
"!  c #AE0FBD",
"~  c #A61BBF",
"^  c #8835A2",
"/  c #9F28B5",
"(  c #9F32B5",
")  c #A033B5",
"_  c #A03CB6",
"`  c #8E46A4",
"'  c #A265B8",
"]  c #BC11C6",
"[  c #BE16C7",
"{  c #C312CB",
"}  c #C912D0",
"|  c #D713D9",
" . c #DB1CDD",
".. c #C13CCF",
"X. c #CC27D4",
"o. c #D922DB",
"O. c #DC26DD",
"+. c #DC31DD",
"@. c #D836DE",
"#. c #DE25E0",
"$. c #DF2FE1",
"%. c #E22EE4",
"&. c #E338E5",
"*. c #B744D0",
"=. c #C145C6",
"-. c #D347DD",
";. c #D947E1",
":. c #E647E7",
">. c #E14EE3",
",. c #E74CE9",
"<. c #EE49EF",
"1. c #E551EA",
"2. c #F252F3",
"3. c #F456F5",
"4. c #F65BF7",
"5. c #E66CE8",
"6. c #ED7DEF",
"7. c #F367F5",
"8. c #F765F8",
"9. c #F76FF8",
"0. c #298486",
"q. c #2B8B81",
"w. c #2A869A",
"e. c #3E989D",
"r. c #3A81B9",
"t. c #4E9EBC",
"y. c #4CFE81",
"u. c #3AA3DB",
"i. c #6394DA",
"p. c #53A0C6",
"a. c #58A2D0",
"s. c #67B3DC",
"d. c #68B3DC",
"f. c #539BE2",
"g. c #549BE1",
"h. c #6FBBE2",
"j. c #6FBCE2",
"k. c #4CCCFE",
"l. c #50CDFE",
"z. c #5ED2FE",
"x. c #73CEF3",
"c. c #6CD7FE",
"v. c #79DBFE",
"b. c #F082F1",
"n. c #F884F9",
"m. c #F999FA",
"M. c #86D5F3",
"N. c #82DEFE",
"B. c #8CE2FF",
"V. c #95E5FF",
"C. c #A2E8FF",
"Z. c #AFEBFF",
"A. c #B6EDFF",
"S. c #BDEEFF",
"D. c #C3F0FF",
"F. c #D7F6FF",
"G. c #E8FFEF",
"H. c #F2FBFF",
"J. c #F2FCFF",
"K. c white",
/* pixels */
"w w w w w w w w w w w w w w w w w w w w w w w w w w w w w w w w ",
"w w w w w w w w w w w w w w w w w w w w w w w w w w w w w w w w ",
"w w w w w w w w w w w w w H K K K K K J w w w w w w w w w w w w ",
"w w w w w w w w w : , , , p.a.a.a.a.a.p., , , : w w w w w w w w ",
"w w w w w w w w w 2 K K K M.V.V.V.V.V.M.K K K 3 w w w w w w w w ",
"w w w w w w w w 0.P V.V.V.J.K.K.Z.V.V.V.V.V.V.L 0.w w w w w w w ",
"w w w w w w 5 0.t.j.V.A.F.S.S.S.C.V.V.V.V.V.V.h.t.0.4 w w w w w ",
"w w w w w w 1 K s.V.V.D.H.C.V.V.V.V.V.V.V.V.V.V.s.K < w w w w w ",
"w w w w w w 1 K s.V.V.V.V.V.V.V.V.V.V.V.V.V.V.V.s.K < w w w w w ",
"w w w w w q.e.d.M.V.V.V.V.V.V.V.V.V.V.V.V.V.V.V.x.u.w.q.w w w w ",
"w w w w w H r.V.V.V.V.V.V.V.V.V.V.V.V.V.V.V.V.V.v.k.U J w w w w ",
"w w w w ; G r.V.V.V.V.V.V.V.V.V.V.V.V.V.V.V.V.c.z.k.U J w w w w ",
"w w w 7 > D Y N.B.V.V.V.V.  . G.y.G..   V.N.N.l.k.k.I F 9 0 w w ",
"w w w X B B S k.v.V.V.V.y.. . K.y.K.. . y.k.k.k.k.k.S B B X w w ",
"w w A ^ -.-.*.S i.z.z.z.y.G.K.G.y.G.K.G.y.k.k.k.g.S ~ [ -.` A w ",
"w w B ) n.8.;.E R f.f.y.y.y.y.y.y.y.y.y.y.y.f.f.T E {  .n._ B w ",
"w w B ' K.9.<.| W B B y.y.y.y.y.y.y.y.y.y.y.B B Q | | +.K.' B w ",
"w w B _ n.4.3.<.X.] ] W B B B B B B B B B W ] ] } | | O.n.( B w ",
"w w B / 4.4.8.n.,.#.| ! E E E E E E E E E ! | | o.>.$.%.4./ B w ",
"w w B / 4.4.n.K.m.2.| | | | | | | | | | | | | | 5.K.n.4.4./ B w ",
"w w f * V 1.4.9.8.4.2.2.2.7.b.o.| o.5.+.| | | | &.9.8.1.V * f w ",
"w w d j % =.....1.4.4.4.4.m.K.:.%.:.K.6.%.%.%.%.@.....=.% j d w ",
"w w d v N C B B ..4.4.4.4.8.9.4.4.4.9.8.4.4.4.4...B B Z N v d w ",
"w w d v N k f f # V V V V V V V V V V V V V V V # f f k N v d w ",
"w w s x n v v v & o o o o + O o o @ % $ o o o o & v v v n x s w ",
"w w w u d M N N v d d d d M n d d h N v d d d d v N N m d = ; w ",
"w w w w w w t d n N N N N g s w w e d n N N N N n d r w ; - ; w ",
"w w w w w w e i c b b b b l 8 w w q y z b b b b c i 6 - ; w w w ",
"w w w w w w w w a d d d d e w w w w ; p d d d d s w ; - ; w w w ",
"w w w w w w w w w w w w w w w w w w w w w w w w w w w w w w w w ",
"w w w w w w w w w w w w w w w w w w w w w w w w w w w w w w w w ",
"w w w w w w w w w w w w w w w w w w w w w w w w w w w w w w w w "
};
