/* XPM */
static char *_1d3b270238c412aee614f3cf5faf518IFCz2fuhr0oOrNAn[] = {
/* columns rows colors chars-per-pixel */
"32 32 206 2 ",
"   c #1C0B5B",
".  c #1D125B",
"X  c #260E5F",
"o  c #22105E",
"O  c #23245A",
"+  c #283A5E",
"@  c #1D1263",
"#  c #1F1B66",
"$  c #2B0E62",
"%  c #231565",
"&  c #231C65",
"*  c #2B1A66",
"=  c #2C1866",
"-  c #231C6B",
";  c #381567",
":  c #271E71",
">  c #222467",
",  c #252369",
"<  c #2E226B",
"1  c #252C6B",
"2  c #33226C",
"3  c #35296A",
"4  c #263967",
"5  c #293B60",
"6  c #353266",
"7  c #262372",
"8  c #282676",
"9  c #292A75",
"0  c #2A287C",
"q  c #342D73",
"w  c #382973",
"e  c #243071",
"r  c #343977",
"t  c #3E3579",
"y  c #3C3E7D",
"u  c #401F67",
"i  c #481B73",
"p  c #551C77",
"a  c #412D76",
"s  c #562D77",
"d  c #42357B",
"f  c #48397D",
"g  c #60207E",
"h  c #185552",
"j  c #29465B",
"k  c #314B5F",
"l  c #2C565A",
"z  c #176F52",
"x  c #2C6858",
"c  c #34605C",
"v  c #337A57",
"b  c #314F6E",
"n  c #2E5665",
"m  c #38467E",
"M  c #366961",
"N  c #4D417F",
"B  c #514E75",
"V  c #60567C",
"C  c #128F4D",
"Z  c #109049",
"A  c #258A52",
"S  c #328356",
"D  c #368E57",
"F  c #369857",
"G  c #379D57",
"H  c #3A9E5A",
"J  c #28AA51",
"K  c #39A556",
"L  c #3AAB56",
"P  c #3AA359",
"I  c #3CAE5B",
"U  c #3CB657",
"Y  c #3DB15A",
"T  c #3FBE5B",
"R  c #3A9661",
"E  c #3CB468",
"W  c #34AA70",
"Q  c #40A25E",
"!  c #40BA5A",
"~  c #479164",
"^  c #41BE63",
"/  c #41AF7F",
"(  c #40C45A",
")  c #272D85",
"_  c #3E3E80",
"`  c #5C2383",
"'  c #5B2E88",
"]  c #4D3783",
"[  c #4C3984",
"{  c #573786",
"}  c #642485",
"|  c #672988",
" . c #642B8B",
".. c #6C298E",
"X. c #6F2A90",
"o. c #742C92",
"O. c #782F97",
"+. c #6B3390",
"@. c #763292",
"#. c #793997",
"$. c #374785",
"%. c #2E5582",
"&. c #335A86",
"*. c #345986",
"=. c #1E788D",
"-. c #2A6889",
";. c #3B668B",
":. c #27768E",
">. c #31718E",
",. c #257C91",
"<. c #2D7B93",
"1. c #357793",
"2. c #316CA4",
"3. c #4D4685",
"4. c #544185",
"5. c #4A5485",
"6. c #58558A",
"7. c #6B5492",
"8. c #43658A",
"9. c #446F92",
"0. c #407895",
"q. c #5A7698",
"w. c #716D9A",
"e. c #677C9D",
"r. c #4853A2",
"t. c #5859AE",
"y. c #6168BE",
"u. c #4B7DC0",
"i. c #7B72C7",
"p. c #84349C",
"a. c #833C9B",
"s. c #8A3AA2",
"d. c #933CA4",
"f. c #9B3EA9",
"g. c #854196",
"h. c #8044AE",
"j. c #9143A2",
"k. c #9744A7",
"l. c #9C41AA",
"z. c #954CA9",
"x. c #9D4BA9",
"c. c #A442AE",
"v. c #A44AAD",
"b. c #A752AE",
"n. c #A543B0",
"m. c #AB4CB1",
"M. c #AC54B2",
"N. c #A758B4",
"B. c #B358B5",
"V. c #936EAA",
"C. c #8976A7",
"Z. c #9777A9",
"A. c #AB7DA8",
"S. c #AB65B1",
"D. c #B766B7",
"F. c #A57AB1",
"G. c #BB7BB6",
"H. c #C16EBA",
"J. c #C474BB",
"K. c #C67ABB",
"L. c #996EC4",
"P. c #2E8598",
"I. c #308698",
"U. c #378899",
"Y. c #338C9D",
"T. c #3B95A5",
"R. c #3896A7",
"E. c #3DA3AE",
"W. c #3EA5B3",
"Q. c #3EACB5",
"!. c #3DB2B6",
"~. c #478495",
"^. c #478EA6",
"/. c #4598A7",
"(. c #7582A5",
"). c #44ADB5",
"_. c #41ADBA",
"`. c #51ADBA",
"'. c #43B4BD",
"]. c #4DB2BC",
"[. c #43BABD",
"{. c #52B3BF",
"}. c #5C9DDD",
"|. c #49BAC2",
" X c #45C8C7",
".X c #55C2C5",
"XX c #4ED5D1",
"oX c #4EDBD5",
"OX c #54DCD6",
"+X c #5ADCD5",
"@X c #52DED8",
"#X c #64DDD7",
"$X c #5CE0D9",
"%X c #61E1DB",
"&X c #6FE6E0",
"*X c #74EDE5",
"=X c #988AAE",
"-X c #AD88AC",
";X c #B681B4",
":X c #C382B9",
">X c #C988BC",
",X c #D696CA",
"<X c #92F0EA",
"1X c #A6F3ED",
"2X c #B1F6F1",
"3X c #EFFBFA",
/* pixels */
"( ( ( ( ( ( ( ( ( ( ( ( ( ( ( ( ( ( ( ( ( ( ( ( ( ( ( ( ( ( ( ( ",
"( ( ( ( ( ( ( ( ( ( ( ( ( ( ( ( ( ( ( ( ( ( ( ( ( ( ( ( ( ( ( ( ",
"( ( ( ( ( ( ( ( ( ( ( ( ( ( K G G K ( ( ( ( ( ( ( ( ( ( ( ( ( ( ",
"( ( ( ( ( ( ( ( ( ( ( L x 4 7 - @ . O c K ( ( ( ( ( T ( ( ( ( ( ",
"( ( ( ^ E ( ( ( ( H n 7 7 %   X i p ` @.` B H ( ( ( ^ ( ( ( ( ( ",
"( ( ( ( ( ( ( ( R 8 7 < = N 7.} ..p.z.d.d.c.j.~ ( ( ( ( ( ( ( ( ",
"( ( ( ( ( ( ! n T.1   $ p r.+.p.d.v.M.m.l.m.m.d.B T ( ( E ( ( ( ",
"( ( ( ( ( ( 5 - ,   s g ..y.h.M.D.V.G.G.G.G.J.D.m.V T ( E ( ( ( ",
"( ( ( ( ( v   : ) i } o.k.S.C.q.-.:.,.,.<.q.e.>XD.j.~ ( ( ( ( ( ",
"( ( ( ( S   %   i | a.S.C.;.-.:./.W.W.).W.Y.,.e.;Xz.g.D ( ( ( ( ",
"( ( ( ( k o   ; | O.F.q.-.<.T.).Q.'.|.Q._.W.U.=.=XS.l.6.( ( ( ( ",
"( ( ( H     , 3 ..7.;.0.^.].!.+X@X+X$X@X[.|.Y.:.0.H.d.a.Q ( ( ( ",
"( ( ( l     r ` t.%.-.Y.]..X%X*X2X<X@XoX[._.R.P.0.H.v.j.c ( ( ( ",
"( ( ( O   , t | 2.%.Y.T.[.oX#X1X3X1X$XoX_.'.Y.:.(.M.b.a.6 ( ( ( ",
"( ( P 1 & r t [ %.&.T.Y.!.#X+X*X<X&XOX[.|.W.U.:.-Xl.B.@.u K ( ( ",
"( ( F m > a { 3.m >.T./.W.XXOXOX+XOX'.'._.Y.:.q.K.d.b.| p G ( ( ",
"( ( F   & q _ y *.~.1.Y.'.E. X X[.E.|.{.Y.I.9.:Xv.m.a.^.i G ( ( ",
"( ( P # t < y y *.-X8.Y.W.E._._._.`.T.P.1.9.;XB.N.x.X.' ; Y ( ( ",
"( ( ( 1 d < y q *.-X5.-.I.T.E././.I.<.-.8.F.D.x.M.O.a.p O ( ( ( ",
"( ( ( M t % d q 5.Z.A.m 8.>.<.<.1.;.*.w.:XL.N.B.o.p.} $ l ( ( ( ",
"( ( ( D f o $.u.y 7.J.A.6.$.6.5.6.C.;XK.M.}.i.#.p.| ;   P ( ( ( ",
"( ( ( ( + * * q d ] l.m.J.:X,XJ.K.H.B.M.n.s.s.z.| ; % 5 ( ( ( ( ",
"( ( ( ( S 3   w 2 N { l.l.v.M.M.x.a.a.o.p.d.p.@.; @ - D ( ( ( ( ",
"( ( ( ( ( v % o 2 2 d f #.s.s.s.d.n.f.z.....` $ @ 8 v ( ( ( ( ( ",
"( ( ( ( ( ( l     2 r.f d 4.#.o.o.a...| [ w % 6.0 j ( ( ( ( ( ( ",
"( ( ( ( ( ( U j 3 6.= a d 4.d { 4.] f q & % 8 8 + I ( ( J Z J ( ",
"( ( ( ( / Y ( ( S .     o * * w * &     % : 8 z J ( T ( J Z J ( ",
"( ( ( ( I ( ( ( ( P j   @ 0       &.e - 7 n A Z J ( W C J ( ( ( ",
"( ( ( ( ( ( ( ( ( ( ( L x b 9 8 8 9 4 h A ( J Z J ( J Z J ( ( ( ",
"( ( ( ( ( ( ( ( ( ( ( ( ( ( Y I I I ( ( ( ( ( ( ( ( ( ( ( ( ( ( ",
"( ( ( ( ( ( ( ( ( ( ( ( ( ( ( ( ( ( ( ( ( ( ( ( ( ( ( ( ( ( ( ( ",
"( ( ( ( ( ( ( ( ( ( ( ( ( ( ( ( ( ( ( ( ( ( ( ( ( ( ( ( ( ( ( ( "
};
