/* XPM */
static char *result[] = {
/* columns rows colors chars-per-pixel */
"32 32 119 2 ",
"   c #053239",
".  c #053A39",
"X  c #093B3B",
"o  c #461C14",
"O  c #4E2116",
"+  c #512317",
"@  c #542618",
"#  c #622F1B",
"$  c #743B20",
"%  c #06423A",
"&  c #09463A",
"*  c #0C443D",
"=  c #054A39",
"-  c #0D4B3A",
";  c #055239",
":  c #09533C",
">  c #0E5A3A",
",  c #09633B",
"<  c #0D623A",
"1  c #0A633C",
"2  c #0D643E",
"3  c #066A3A",
"4  c #0E6A3A",
"5  c #06723A",
"6  c #0A733C",
"7  c #4A6A35",
"8  c #526432",
"9  c #51793A",
"0  c #135641",
"q  c #145641",
"w  c #175F43",
"e  c #146642",
"r  c #1B6945",
"t  c #107540",
"y  c #177844",
"u  c #1B7845",
"i  c #1E7A47",
"p  c #1E7148",
"a  c #1E7A48",
"s  c #834523",
"d  c #844624",
"f  c #8A4926",
"g  c #8D4B26",
"h  c #8E4C26",
"j  c #985329",
"k  c #9B542A",
"l  c #B66831",
"z  c #06823A",
"x  c #0A833C",
"c  c #0F8B3B",
"v  c #1A873C",
"b  c #07923B",
"n  c #0A933C",
"m  c #079A3A",
"M  c #07A23B",
"N  c #08A23B",
"B  c #08AA3B",
"V  c #08B23B",
"C  c #0CB63B",
"Z  c #0FBA3C",
"A  c #1AB73C",
"S  c #10BA3B",
"D  c #14BF3B",
"F  c #10BA3C",
"G  c #1BB83D",
"H  c #1BBF3D",
"J  c #1CBF3D",
"K  c #22B03C",
"L  c #27B43D",
"P  c #42853F",
"I  c #17C33C",
"U  c #18C33D",
"Y  c #1BC73D",
"T  c #1CC73D",
"R  c #1FCB3D",
"E  c #1FCC3D",
"W  c #2BC03E",
"Q  c #20CB3D",
"!  c #20CC3D",
"~  c #27CC3E",
"^  c #37C53F",
"/  c #23D03D",
"(  c #27D43E",
")  c #2BD13E",
"_  c #2BD83F",
"`  c #2FDC3F",
"'  c #30DD3F",
"]  c #33E13F",
"[  c #37E53F",
"{  c #0F8547",
"}  c #109049",
"|  c #26844B",
" . c #298D4D",
".. c #3A8441",
"X. c #249B4E",
"o. c #2F9C4A",
"O. c #2D9750",
"+. c #2D9E50",
"@. c #319F51",
"#. c #28A04D",
"$. c #28AA51",
"%. c #35A853",
"&. c #35A954",
"*. c #39B156",
"=. c #3CBA58",
"-. c #428540",
";. c #429A49",
":. c #41A44C",
">. c #41AF51",
",. c #41BA56",
"<. c #3FDD40",
"1. c #33E040",
"2. c #37E540",
"3. c #3FE540",
"4. c #3BE940",
"5. c #3FEE40",
"6. c #40C45A",
"7. c #43F240",
"8. c #47F641",
/* pixels */
"6.6.6.6.6.6.6.=.*.+.& - - - % @.@.% - - - %  .*.=.6.6.6.6.6.6.6.",
"6.6.6.6.6.6.=.i & < T 8.8.8.F > > F 8.8.8.R 4 & i =.6.6.6.6.6.6.",
"6.6.6.6.6.*.u c _ 8.8.8.8.8.8.8.8.2.8.8.8.8.8.( c u &.6.6.6.6.6.",
"6.6.6.6.6.r 5 ( 8.8.8.8.8.8.8.8.5.V ` 8.8.8.8.8.( 5 r 6.6.6.6.6.",
"6.6.6.6.| X 5 T [ 8.8.8.8.8.8.8.Y V V I I 4.8.[ T 5 q @.6.6.6.6.",
"6.6.6.w x G ~ ( ] 8.8.8.8.8.8.I 2.5.5.5.5.7.8.] ( L v t  .6.6.6.",
"6.6.0 n ) 7.8.8.8.8.8.8.8.8.8.5.8.8.8.8.8.8.8.8.8.8.5.J 6 p 6.6.",
"6.6.* ^ 8.7.8.8.8.8.8.8.8.8.8.8.8.8.8.8.8.8.8.8.8.8.8.5.K * 6.6.",
"6.6.* ^ 8./ 2.8.5.8.8.8.8.8.8.8.8.8.8.8.8.8.8.8.8.8.8.8.^ * 6.6.",
"6.%.: W 5.8.I 8.I 8.8.8.8.8.8.8.8.8.8.8.8.8.8.8.8.8.8.7.W 2 @.6.",
" .1 J ! 2.8.I ( 2.8.8.8.8.8.8.8.8.8.8.8.8.8.8.8.4.4.8.2.! H 1  .",
"  G 7.8.8.8.8.8.8.8.8.8.8.8.8.8.8.8.8.8.8.8.] ` ( ] 8.8.8.7.A   ",
"  <.8.8.8.8.8.8.4.` 8.8.8.8.8.8.8.8.8.8.8.` S V ( 8.8.8.8.8.<.  ",
"  <.8.8.8.8.8.8.5.( E E E E 8.8.8.8.8.8.8.2.` U D ] 8.8.8.8.<.  ",
"  G 7.8.8.8.8.8.8.7./ V V ` 8.8.8.8.8.8.8.8.8.2.` 4.8.8.8.7.A   ",
"  ; <.8._ 1.8.8.8.8.[ C [ ( 8.8.8.8.8.8.8.8.8.8.8.8.2.( 8.3.=   ",
"  b Z Z ` 7.8.8.8.8.8.' 5.! ] 7.8.8.8.8.8.8.8.8.8.8.7.` Z Z b   ",
"  M V V ` 8.8.8.8.8.8.4.5.2.2.7.8.8.8.8.8.8.8.8.8.8.8.` V V M   ",
"r x B V Q 5.8.8.8.5.[ 8.8.8.8.8.8.8.8.8.8.] 7.8.8.8.] R V B x r ",
"6.* M V V T ( ( ( R U 8.8.8.8.8.8.8.8.8.8.I ! ( ( ( S V V M * 6.",
"6.O., N V V V V V V C / 8.8.8.8.8.8.8.8./ S V V V V V V m , O.6.",
"6.6.O.2 b V V V V V V C E 8.8.8.8.8.8.E C V V V V V V b t O.6.6.",
"6.6.6.%.y ; z V V m 3 V V I I I I I I V V 3 m V V z ; e &.6.6.6.",
"6.6.6.6.=.*.a % % %   ; V V V V V V V V ; . . % % a *.=.6.6.6.6.",
"6.6.6.6.6.6.=.*.*.*. .  % % % % % % % %   O.X.{ X.=.6.6.6.6.6.6.",
"6.6.6.6.6.6.6.6.6.6.6.>.o f h h h h f o o.6.$.} $.6.6.6.$.} $.6.",
"6.6.6.6.6.6.6.6.6.6.6.>.o h l l l l h o o.6.$.} $.6.6.6.$.} $.6.",
"6.6.6.6.6.6.6.6.6.6.,.P # l l l l l l # ..,.$.} $.6.$.} $.6.6.6.",
"6.6.6.6.6.6.6.6.6.>.9 $ k l l l l l l k $ 7 #.} $.6.$.} $.6.6.6.",
"6.6.6.6.6.6.6.6.:.8 d h @ l l k j l l @ g s 8 :.6.6.6.6.6.6.6.6.",
"6.6.6.6.6.6.6.6.-.o @ O o l h @ @ h l o O + O -.6.6.6.6.6.6.6.6.",
"6.6.6.6.6.6.6.6.,.>.>.;.o @ O ;.;.O @ o ;.>.>.,.6.6.6.6.6.6.6.6."
};
